# xmcd CD database file
#
# Track frame offsets:
#	150
#	31977
#	57836
#	92824
#	123572
#	146259
#	174301
#	211868
#	236482
#
# Disc length: 3619 seconds
#
# Revision: 0
# Processed by: cddbd v1.5.2PL0 Copyright (c) Steve Scherf et al.
# Submitted via: CDex 1.51
#
DISCID=720e2109
DTITLE=MudSlide Charley - Goes Like This
DYEAR=2008
DGENRE=Blues
TTITLE0=Up Jumped the Devil
TTITLE1=Walkin' Blues
TTITLE2=21st Century Watermelon Blues
TTITLE3=She's Gone
TTITLE4=Mo' Women
TTITLE5=Potlicker's Blues
TTITLE6=Rock Me
TTITLE7=Give Me Back My Wig
TTITLE8=Judgment Day
EXTD=YEAR: 2008
EXTT0=
EXTT1=
EXTT2=
EXTT3=
EXTT4=
EXTT5=
EXTT6=
EXTT7=
EXTT8=
PLAYORDER=
